<svg viewBox="0 0 1024 1024" preserveAspectRatio="xMidYMid meet" xmlns="http://www.w3.org/2000/svg" width="1024" height="1024" background="transparent" style="background: transparent;"><g><path d="M0 0 C337.92 0 675.84 0 1024 0 C1024 337.92 1024 675.84 1024 1024 C686.08 1024 348.16 1024 0 1024 C0 686.08 0 348.16 0 0 Z " fill="#FEFEFE" transform="translate(0,0)"/></g><g><path d="M0 0 C1.004 0.198 2.008 0.396 3.043 0.6 C6.053 1.195 9.059 1.81 12.062 2.438 C12.929 2.618 13.796 2.799 14.69 2.985 C29.099 6.169 43.068 11.311 57.01 16.084 C59.694 17.002 62.379 17.915 65.064 18.828 C108.945 33.789 108.945 33.789 118 51 C119.05 54.149 119.101 56.388 119.062 59.688 C119.053 60.681 119.044 61.675 119.035 62.699 C119.018 63.838 119.018 63.838 119 65 C119.606 65.098 120.212 65.196 120.836 65.297 C132.482 67.375 140.705 71.72 150 79 C150.588 79.422 151.176 79.843 151.781 80.277 C159.995 86.416 165.838 97.062 168 107 C168.803 117.544 168.713 128.033 165 138 C164.541 139.381 164.084 140.762 163.629 142.145 C157.525 160.166 149.068 177.811 136.188 191.996 C134.548 194.762 135.213 195.907 136 199 C137.48 214.134 135.294 225.556 125.75 237.812 C117.776 246.895 108.938 255.212 97.363 259.277 C96.735 259.503 96.106 259.729 95.458 259.962 C93.654 260.593 91.829 261.162 90.004 261.727 C85.182 265.376 84.981 270.248 84 276 C83.819 276.978 83.638 277.956 83.451 278.963 C82.921 281.97 82.451 284.98 82 288 C81.833 289.099 81.667 290.197 81.495 291.329 C78.085 313.071 78.085 313.071 77 335 C77.666 334.567 78.333 334.134 79.02 333.688 C85.5 329.772 91.359 327.167 99 329 C103.279 331.745 105.856 335.309 108.5 339.562 C108.889 340.178 109.277 340.794 109.678 341.428 C116.903 353.094 121.308 364.103 120 378 C118.989 381.525 117.68 384.744 116 388 C116.658 388.252 117.315 388.504 117.993 388.763 C121.762 390.314 125.431 392.043 129.113 393.789 C130.305 394.352 130.305 394.352 131.52 394.927 C134.119 396.157 136.716 397.391 139.312 398.625 C140.201 399.047 141.09 399.47 142.005 399.905 C240.254 446.654 240.254 446.654 255.789 488.105 C257.395 492.679 258.819 497.298 260 502 C260.279 503.059 260.279 503.059 260.564 504.14 C262.408 512.001 262.358 519.91 262.312 527.938 C262.309 528.672 262.306 529.407 262.303 530.164 C261.904 593.576 221.202 648.98 181.431 695.331 C179.936 697.075 178.446 698.824 176.957 700.574 C171.721 706.718 166.434 712.803 161.004 718.777 C159.177 720.804 157.398 722.863 155.625 724.938 C152.243 728.833 148.59 732.44 144.92 736.061 C141.719 739.234 138.832 742.501 136 746 C132.927 749.248 129.649 752.216 126.312 755.188 C122.768 758.349 119.381 761.602 116.062 765 C111.953 769.148 107.665 772.885 103.102 776.523 C100.802 778.36 98.531 780.215 96.273 782.102 C70.601 803.46 38.903 824.583 4.118 822.223 C-14.833 820.227 -30.025 805.996 -43.287 793.6 C-45.129 791.879 -46.979 790.166 -48.828 788.453 C-71.2 767.673 -71.2 767.673 -80.297 756.922 C-82.434 754.51 -84.708 752.265 -87 750 C-90.481 746.556 -93.775 743.047 -96.957 739.328 C-99.739 736.157 -102.621 733.083 -105.5 730 C-110.091 725.074 -114.626 720.121 -119 715 C-119.806 714.073 -120.611 713.146 -121.441 712.191 C-140.484 690.153 -156.719 665.809 -168 638.875 C-168.279 638.213 -168.558 637.551 -168.845 636.869 C-173.543 625.19 -175.412 611.023 -172.125 598.727 C-169.608 593.345 -165.741 588.606 -161 585 C-160.34 585 -159.68 585 -159 585 C-161.87 579.225 -165.003 575.908 -170.125 572.062 C-170.792 571.545 -171.458 571.027 -172.145 570.493 C-174.088 568.984 -176.042 567.49 -178 566 C-190.734 556.275 -199.371 545.687 -206.312 531.188 C-214.168 515.198 -226.173 501.184 -240 490 C-242.541 491.193 -244.29 492.253 -246.438 494.125 C-251.46 497.378 -257.301 496.962 -263 496 C-277.393 492.678 -294.596 486.919 -302.957 473.824 C-303.301 473.222 -303.645 472.62 -304 472 C-304.619 471.051 -305.238 470.102 -305.875 469.125 C-307.526 464.54 -308.072 460.798 -307 456 C-304.279 450.886 -300.889 446.337 -297.254 441.84 C-295.446 439.187 -295.733 437.136 -296 434 C-296.661 430.881 -296.661 430.881 -299.062 429.875 C-302.722 428.785 -306.201 428.386 -310 428 C-309.918 428.887 -309.835 429.774 -309.75 430.688 C-310 434 -310 434 -312.125 436.375 C-312.744 437.241 -313.363 438.108 -314 439 C-313.424 442.298 -313.424 442.298 -312.629 444.613 C-311.905 447.361 -311.835 449.848 -311.75 452.688 C-311.39 458.827 -309.807 464.075 -307.938 469.875 C-303.909 482.734 -302.855 496.938 -306.532 510.028 C-307.389 513.638 -307.471 517.305 -307.625 521 C-307.664 521.775 -307.702 522.549 -307.742 523.348 C-307.835 525.231 -307.919 527.116 -308 529 C-307.033 528.942 -306.066 528.884 -305.07 528.824 C-296.757 528.536 -289.778 528.592 -283 534 C-276.911 540.116 -273.614 548.619 -270.078 556.369 C-267.357 562.31 -264.401 568.097 -261.34 573.867 C-255.846 584.223 -250.597 594.693 -245.375 605.188 C-244.457 607.028 -243.539 608.869 -242.621 610.709 C-240.412 615.138 -238.205 619.569 -236 624 C-234.02 619.71 -232.04 615.42 -230 611 C-229.01 611 -228.02 611 -227 611 C-226.945 613.291 -226.907 615.583 -226.875 617.875 C-226.852 619.151 -226.829 620.427 -226.805 621.742 C-226.874 625.749 -227.625 629.477 -228.47 633.385 C-229.37 637.826 -229.873 642.318 -230.438 646.812 C-233.513 670.123 -233.513 670.123 -238 675 C-238.66 675 -239.32 675 -240 675 C-240.027 672.292 -240.047 669.583 -240.062 666.875 C-240.071 666.114 -240.079 665.354 -240.088 664.57 C-240.107 660.252 -239.814 656.258 -239 652 C-238.268 645.914 -239.052 642.769 -242.462 637.58 C-245.479 632.52 -247.719 627.04 -250.104 621.66 C-255.122 610.352 -260.278 599.129 -265.812 588.062 C-266.31 587.063 -266.807 586.064 -267.319 585.035 C-269.67 580.174 -269.67 580.174 -273 576 C-273.389 576.678 -273.779 577.356 -274.18 578.055 C-287.152 599.635 -309.055 610.855 -332.543 617.746 C-349.519 621.659 -366.189 620.133 -381 611 C-380.396 618.251 -378.95 624.995 -377 632 C-376.707 633.067 -376.415 634.135 -376.113 635.234 C-362.492 681.617 -340.803 729.424 -310.492 767.141 C-309.094 768.883 -307.719 770.64 -306.348 772.402 C-298.56 782.159 -289.673 789.251 -279.02 795.688 C-278.02 796.337 -278.02 796.337 -277 797 C-277 797.33 -277 797.66 -277 798 C-288.012 798.754 -296.029 796.297 -304.535 789.211 C-353.919 744.915 -390.936 657.15 -395 591 C-395.23 586.354 -395.359 581.713 -395.438 577.062 C-395.489 575.338 -395.489 575.338 -395.542 573.578 C-395.579 566.187 -394.589 560.918 -390 555 C-387.727 552.836 -387.727 552.836 -385.625 551.375 C-382.378 548.783 -382.378 548.783 -381.625 544.688 C-385.147 535.243 -391.073 528.194 -398 521 C-398.611 520.361 -399.222 519.721 -399.852 519.062 C-402.794 516.053 -405.841 513.271 -409.062 510.562 C-423.596 497.737 -429.286 472.971 -431.309 454.125 C-431.557 448.098 -431.208 443.746 -428.375 438.375 C-424.3 430.562 -422.865 422.243 -421.181 413.644 C-419.282 404.233 -417.376 396.886 -409.109 391.305 C-408.413 390.874 -407.717 390.444 -407 390 C-406.428 389.631 -405.855 389.263 -405.266 388.883 C-388.382 379.246 -366.605 380.759 -348 383 C-346.68 380.69 -345.36 378.38 -344 376 C-344.866 376.495 -345.733 376.99 -346.625 377.5 C-352.481 379.969 -358.792 379.881 -365 379 C-371.86 375.934 -375.887 370.018 -378.75 363.25 C-382.188 352.025 -381.07 338.467 -376 328 C-370.966 318.655 -364.579 309.323 -354 306 C-347.515 304.896 -342.397 306.327 -337 310 C-335.159 311.577 -333.616 313.182 -332 315 C-329.3 309.743 -326.897 304.49 -324.758 298.984 C-324.16 297.47 -323.563 295.956 -322.965 294.441 C-322.046 292.101 -321.129 289.761 -320.214 287.419 C-310.4 262.347 -310.4 262.347 -305.188 257.25 C-295.78 253.561 -284.826 257.103 -275.855 260.91 C-258.013 269.108 -258.013 269.108 -252.688 275.625 C-252.196 276.215 -251.705 276.806 -251.199 277.414 C-248.255 281.308 -248.448 285.289 -249 290 C-252.252 296.639 -258.491 301.804 -264 306.625 C-266.224 308.873 -266.224 308.873 -266.562 311.938 C-265.683 316.723 -263.489 319.686 -259.875 322.875 C-254.366 325.031 -248.992 324.747 -243.5 322.688 C-240.781 321.082 -240.781 321.082 -239 318 C-238.806 316.001 -238.806 316.001 -238.98 313.832 C-239.009 313.021 -239.038 312.209 -239.068 311.373 C-239.147 309.685 -239.238 307.997 -239.342 306.311 C-239.538 299.935 -238.073 295.928 -234 291 C-229.415 286.481 -226.244 284.826 -219.812 284.688 C-211.742 284.77 -204.623 286.486 -197 289 C-195.812 289.386 -195.812 289.386 -194.599 289.78 C-192.056 290.619 -189.527 291.49 -187 292.375 C-186.211 292.643 -185.422 292.91 -184.609 293.186 C-179.255 295.139 -174.796 297.665 -171 302 C-166.729 313.959 -178.349 332.165 -183.062 343.188 C-189.402 357.947 -189.402 357.947 -195 373 C-194.34 372.67 -193.68 372.34 -193 372 C-187.498 371.498 -182.612 371.238 -177.562 373.625 C-171.701 379.058 -166.34 385.246 -165.75 393.5 C-165.832 394.325 -165.915 395.15 -166 396 C-165.01 395.918 -164.02 395.835 -163 395.75 C-156.776 395.788 -151.98 398.802 -147.648 403.094 C-143.794 407.045 -140.691 411.361 -137.625 415.938 C-137.066 416.765 -136.506 417.593 -135.93 418.445 C-122.885 437.982 -114.913 456.296 -111.754 479.633 C-110.998 485.157 -110.052 490.635 -109.05 496.119 C-108.319 500.133 -107.684 504.146 -107.125 508.188 C-105.545 518.787 -103.393 529.821 -100 540 C-99.313 539.723 -98.626 539.446 -97.918 539.16 C-97.017 538.798 -96.116 538.436 -95.188 538.062 C-94.294 537.703 -93.401 537.343 -92.48 536.973 C-90.673 536.264 -88.842 535.614 -87 535 C-85.967 533.101 -85.967 533.101 -85.238 530.723 C-84.928 529.826 -84.619 528.929 -84.299 528.005 C-83.974 527.034 -83.648 526.063 -83.312 525.062 C-79.712 514.772 -75.669 504.849 -71 495 C-70.632 494.22 -70.264 493.44 -69.884 492.636 C-54.82 460.977 -54.82 460.977 -46.263 450.969 C-44.769 449.117 -44.769 449.117 -45.288 447.107 C-45.523 446.412 -45.758 445.716 -46 445 C-46.167 443.098 -46.294 441.192 -46.395 439.285 C-47.802 396.512 -47.802 396.512 -62 357 C-65.705 356.369 -67.842 356.314 -71.117 358.254 C-85.333 369.965 -94.465 389.811 -100 407 C-99.67 407.33 -99.34 407.66 -99 408 C-98.178 407.336 -97.355 406.672 -96.508 405.988 C-81.349 393.922 -81.349 393.922 -72.375 392.375 C-67.027 393.365 -63.013 395.607 -59.488 399.797 C-53.923 408.154 -52.499 416.079 -53 426 C-53.99 426 -54.98 426 -56 426 C-56.447 424.915 -56.895 423.829 -57.355 422.711 C-57.966 421.265 -58.576 419.82 -59.188 418.375 C-59.479 417.662 -59.771 416.949 -60.072 416.215 C-63.462 408.268 -63.462 408.268 -70.07 403.133 C-80.783 403.092 -88.584 412.258 -95.853 419.23 C-99.401 422.608 -102.694 425.616 -107.625 426.438 C-110 426 -110 426 -111.812 424.5 C-114.801 418.209 -112.56 411.4 -110.562 405.125 C-110.332 404.367 -110.102 403.609 -109.865 402.828 C-108.198 397.395 -108.198 397.395 -107 395 C-117.124 396.586 -127.108 398.265 -137 401 C-136 398 -136 398 -133.332 396.316 C-126.026 392.675 -119.084 389.871 -111.156 387.824 C-110.115 387.552 -109.073 387.28 -108 387 C-106.967 386.79 -105.935 386.58 -104.871 386.363 C-100.715 384.39 -99.558 381.511 -97.562 377.5 C-96.788 376.038 -96.009 374.579 -95.227 373.121 C-94.849 372.412 -94.472 371.703 -94.083 370.972 C-89.173 362.031 -82.378 352.926 -74 347 C-74.993 346.599 -75.985 346.198 -77.008 345.785 C-96.081 337.884 -110.414 328.7 -119.223 309.309 C-122.171 301.786 -123.744 293.96 -125 286 C-125.106 285.331 -125.212 284.662 -125.321 283.973 C-129.497 255.964 -128.687 225.101 -119.537 198.091 C-118.439 193.817 -119.646 190.061 -121 186 C-122.296 172.757 -119.396 164.039 -110.875 153.625 C-103.809 146.335 -96.245 142.467 -86 142.25 C-77.545 142.4 -70.281 145.042 -64.035 150.816 C-62.562 152.484 -61.263 154.17 -60 156 C-59.381 156.804 -58.763 157.609 -58.125 158.438 C-57.754 158.953 -57.382 159.469 -57 160 C-54.462 153.655 -53.944 148.597 -56.5 142.312 C-59.187 138.245 -62.43 135.697 -67 134 C-73.739 132.775 -78.688 133.394 -84.5 137.062 C-85.66 137.915 -85.66 137.915 -86.844 138.785 C-89 140 -89 140 -91.141 139.812 C-94.172 138.488 -95.318 136.824 -97 134 C-98.033 127.49 -98.033 127.49 -95.719 124.152 C-94.214 122.593 -92.789 121.224 -91 120 C-90.34 120 -89.68 120 -89 120 C-88.907 118.608 -88.907 118.608 -88.812 117.188 C-88.07 111.719 -85.404 106.905 -83 102 C-84.258 102.046 -85.516 102.093 -86.812 102.141 C-103.043 102.558 -117.795 101.545 -130.176 89.965 C-138.714 81.115 -141.324 71.086 -141.385 59.011 C-141.131 47.619 -135.476 38.049 -129 29 C-128.563 28.377 -128.126 27.755 -127.676 27.113 C-113.422 8.75 -88.091 -0.099 -65.895 -3.173 C-43.761 -5.736 -21.782 -4.474 0 0 Z " fill="#070707" transform="translate(621,157)"/></g><g><path d="M0 0 C9.651 4.248 13.801 16.992 18 26 C19.796 31.389 19.691 35.475 17.383 40.57 C16.65 41.768 15.896 42.952 15.125 44.125 C14.721 44.767 14.317 45.409 13.9 46.07 C9.539 52.905 4.845 59.502 0 66 C-0.403 66.544 -0.807 67.087 -1.222 67.647 C-9.262 78.438 -17.738 89.109 -27.449 98.449 C-29.118 100.118 -30.61 101.878 -32.125 103.688 C-35.41 107.488 -38.964 110.943 -42.625 114.375 C-43.176 114.899 -43.726 115.423 -44.293 115.964 C-47.349 118.786 -50.007 120.768 -54 122 C-54.485 121.007 -54.969 120.015 -55.469 118.992 C-61.419 106.888 -67.407 95.017 -75.688 84.312 C-76.139 83.724 -76.591 83.135 -77.056 82.529 C-80.819 77.819 -83.814 75.323 -89.812 74.438 C-94.913 74.621 -98.524 77.442 -102 81 C-103.219 83.102 -103.219 83.102 -104 85 C-103.504 84.711 -103.007 84.423 -102.496 84.125 C-97.9 81.613 -94.322 79.839 -89 81 C-83.652 85.826 -79.816 92.033 -76.188 98.188 C-75.68 99.037 -75.173 99.887 -74.651 100.763 C-69.452 109.648 -65.074 118.9 -60.841 128.276 C-60.123 129.986 -60.123 129.986 -59 131 C-54.339 131.752 -51.546 132.005 -47.52 129.388 C-40.859 123.752 -34.553 117.865 -28.411 111.671 C-26.876 110.126 -25.331 108.592 -23.785 107.059 C-17.412 100.694 -11.616 94.052 -6 87 C-5.053 85.875 -4.099 84.756 -3.137 83.645 C3.995 75.398 10.541 66.781 17 58 C20.14 58.661 22.721 59.756 25.57 61.223 C26.457 61.674 27.343 62.126 28.256 62.591 C29.203 63.077 30.15 63.562 31.125 64.062 C37.895 67.491 44.669 70.841 51.625 73.875 C137.066 111.266 137.066 111.266 153.805 149.844 C155.276 153.729 156.55 157.648 157.75 161.625 C158.066 162.664 158.066 162.664 158.389 163.723 C161.305 173.844 161.241 184.102 161.25 194.562 C161.251 195.277 161.251 195.992 161.252 196.728 C161.236 207.115 160.864 216.926 158 227 C157.818 227.653 157.636 228.305 157.448 228.978 C144.019 276.42 112.939 314.458 80.906 350.809 C79.309 352.644 77.73 354.492 76.156 356.348 C66.734 367.447 66.734 367.447 61.547 372.461 C59.922 374.077 58.431 375.762 56.938 377.5 C53.389 381.612 49.704 385.59 46 389.562 C45.419 390.188 44.837 390.813 44.238 391.457 C41.378 394.517 38.485 397.526 35.5 400.465 C33.074 402.87 30.789 405.346 28.559 407.934 C24.906 412.163 21.025 416.123 17.062 420.062 C16.398 420.731 15.733 421.399 15.049 422.088 C11.123 426.006 7.093 429.746 2.891 433.367 C1.17 434.853 -0.524 436.363 -2.211 437.887 C-24.671 457.912 -53.656 475.957 -84.692 474.243 C-90.273 473.656 -95.066 471.552 -100 469 C-100.844 468.577 -101.689 468.154 -102.559 467.719 C-110.144 463.544 -116.584 457.755 -123 452 C-123.853 451.236 -124.705 450.471 -125.584 449.684 C-133.095 442.878 -140.33 435.826 -147.484 428.647 C-149.325 426.8 -151.171 424.96 -153.018 423.119 C-158.397 417.743 -163.709 412.372 -168.641 406.577 C-170.486 404.436 -172.473 402.467 -174.5 400.5 C-177.784 397.254 -180.862 393.924 -183.863 390.418 C-186.792 387.103 -189.84 383.905 -192.875 380.688 C-197.799 375.454 -202.465 370.132 -206.945 364.512 C-208.939 362.075 -211.032 359.794 -213.188 357.5 C-227.895 341.23 -239.132 322.439 -248.625 302.75 C-249.103 301.768 -249.103 301.768 -249.591 300.767 C-251.815 295.975 -253.026 291.184 -254 286 C-253.152 285.49 -252.304 284.979 -251.43 284.453 C-236.257 275.124 -223.585 263.473 -212 250 C-211.019 248.871 -210.037 247.742 -209.055 246.613 C-205.694 242.75 -202.344 238.878 -199 235 C-198.504 234.425 -198.008 233.85 -197.497 233.258 C-196.098 231.634 -194.703 230.006 -193.312 228.375 C-192.87 227.856 -192.428 227.338 -191.972 226.803 C-189.63 224.028 -187.377 221.207 -185.199 218.301 C-184.746 217.696 -184.292 217.092 -183.825 216.469 C-182.96 215.307 -182.105 214.137 -181.259 212.96 C-180.242 211.586 -179.127 210.285 -178 209 C-177.01 209 -176.02 209 -175 209 C-173.549 210.614 -173.549 210.614 -172.031 212.883 C-171.465 213.714 -170.899 214.546 -170.315 215.403 C-169.417 216.75 -169.417 216.75 -168.5 218.125 C-163.654 225.238 -158.691 232.159 -153.289 238.86 C-150.076 242.848 -150.076 242.848 -149 245 C-151.661 253.929 -156.556 261.542 -162 269 C-162.4 269.549 -162.799 270.098 -163.211 270.664 C-176.257 288.41 -191.865 302.359 -210.708 313.69 C-216.41 316.884 -216.41 316.884 -219.688 322.188 C-219.791 322.786 -219.894 323.384 -220 324 C-188.625 313.894 -163.264 284.345 -147 257 C-146.34 256.01 -145.68 255.02 -145 254 C-139.227 255.492 -134.989 258.491 -130.188 261.875 C-129.357 262.452 -128.527 263.029 -127.672 263.624 C-125.109 265.409 -122.554 267.204 -120 269 C-118.466 270.071 -116.933 271.141 -115.398 272.211 C-103.008 280.877 -90.934 289.784 -79.508 299.701 C-78.133 300.885 -76.739 302.047 -75.344 303.207 C-63.356 313.431 -55.685 325.716 -48.239 339.444 C-47.715 340.407 -47.192 341.371 -46.652 342.363 C-46.188 343.233 -45.724 344.102 -45.246 344.997 C-44.155 347.141 -44.155 347.141 -42 348 C-40.912 333.223 -45.806 320.815 -55.276 309.471 C-60.571 303.387 -66.237 297.639 -72 292 C-73.668 290.335 -75.335 288.668 -77 287 C-68.132 275.041 -59.161 263.354 -49.121 252.34 C-47.192 250.212 -45.31 248.053 -43.438 245.875 C-39.818 241.718 -35.933 237.858 -32 234 C-31.154 233.154 -30.309 232.309 -29.438 231.438 C-28.633 230.633 -27.829 229.829 -27 229 C-26.256 228.223 -26.256 228.223 -25.497 227.431 C-21.431 223.241 -17.217 219.658 -12.438 216.312 C-11.711 215.804 -10.985 215.296 -10.237 214.772 C10.829 200.367 34.621 189.404 59 182 C51.035 178.017 39.089 181.595 31.174 184.225 C17.105 189.24 3.811 195.913 -9.249 203.111 C-11 204 -11 204 -14 205 C-13.552 198.282 -11.614 193.304 -8.625 187.312 C-8.225 186.484 -7.826 185.656 -7.414 184.803 C-5.443 180.754 -3.407 176.812 -1 173 C-12.308 178.483 -19.161 192.61 -23.375 203.875 C-24.446 206.979 -25.141 209.888 -25.625 213.125 C-26.734 218.078 -30.637 220.714 -34.395 223.824 C-37.099 226.083 -39.532 228.487 -42 231 C-42.923 231.9 -43.846 232.8 -44.797 233.727 C-50.475 239.281 -55.776 244.932 -60.727 251.16 C-63.677 254.845 -66.753 258.414 -69.829 261.995 C-72.245 264.836 -74.565 267.715 -76.781 270.715 C-77.228 271.317 -77.675 271.919 -78.135 272.54 C-78.986 273.697 -79.825 274.864 -80.652 276.039 C-81.809 277.613 -81.809 277.613 -84 280 C-88.402 280 -89.152 279.529 -92.578 277.062 C-93.481 276.422 -94.383 275.782 -95.313 275.122 C-96.282 274.422 -97.251 273.722 -98.25 273 C-100.315 271.534 -102.381 270.071 -104.449 268.609 C-106.057 267.471 -106.057 267.471 -107.697 266.311 C-113.084 262.523 -118.574 258.889 -124.062 255.25 C-125.066 254.584 -126.07 253.917 -127.104 253.23 C-128.051 252.603 -128.997 251.975 -129.973 251.328 C-131.295 250.442 -131.295 250.442 -132.645 249.537 C-134.508 248.321 -136.431 247.198 -138.371 246.109 C-141.555 243.555 -142.859 240.978 -144.7 237.386 C-146.831 233.474 -149.609 230.102 -152.375 226.625 C-156.784 220.985 -160.859 215.357 -164.562 209.227 C-165.899 207.157 -167.314 205.474 -169 203.688 C-171 201 -171 201 -170.828 198.402 C-164.258 171.411 -149.377 145.473 -135 122 C-134.128 120.552 -133.257 119.105 -132.387 117.656 C-123.928 103.724 -114.391 90.461 -104.688 77.375 C-104.024 76.472 -104.024 76.472 -103.346 75.551 C-101.933 73.669 -100.476 71.832 -99 70 C-98.063 68.799 -98.063 68.799 -97.107 67.574 C-91.262 60.526 -84.954 56.717 -76.812 52.688 C-74.313 51.407 -71.821 50.111 -69.328 48.816 C-68.707 48.497 -68.087 48.177 -67.447 47.848 C-53.388 40.584 -39.767 32.354 -27 23 C-25.978 22.263 -24.956 21.525 -23.902 20.766 C-15.34 14.487 -7.385 7.631 0 0 Z " fill="#FEFEFE" transform="translate(713,496)"/></g><g><path d="M0 0 C4.563 0.691 8.711 2.069 13.043 3.633 C13.929 3.948 14.815 4.264 15.728 4.589 C32.692 10.783 32.692 10.783 37.355 16.508 C37.855 19.883 37.855 19.883 37.355 23.508 C35.326 26.029 33.153 27.888 30.605 29.867 C25.425 34.021 22.279 38.066 20.906 44.668 C20.376 51.355 23.16 56.447 27.355 61.508 C33.993 66.971 40.218 67.994 48.699 67.906 C55.28 67.189 59.489 64.394 64.078 59.773 C68.326 53.857 67.662 47.199 67.084 40.247 C66.745 34.369 66.745 34.369 68.542 31.834 C70.717 29.894 72.795 28.645 75.629 27.949 C76.322 27.989 77.016 28.029 77.73 28.07 C78.419 28.092 79.107 28.114 79.816 28.137 C92.29 29.96 105.41 34.324 116.355 40.508 C116.563 44.345 116.017 46.867 114.457 50.363 C114 51.416 113.542 52.468 113.071 53.552 C112.804 54.164 112.536 54.776 112.261 55.406 C110.391 59.746 108.614 64.125 106.816 68.496 C105.981 70.522 105.145 72.547 104.309 74.572 C103.014 77.71 101.719 80.848 100.425 83.986 C99.16 87.052 97.894 90.118 96.629 93.184 C96.244 94.116 95.86 95.048 95.464 96.009 C95.1 96.891 94.736 97.772 94.361 98.681 C93.849 99.924 93.849 99.924 93.326 101.191 C92.446 103.292 91.53 105.373 90.604 107.454 C88.7 112.11 89.096 115.763 90.355 120.508 C96.507 120.155 100.826 119.334 106.355 116.508 C109.918 116.008 109.918 116.008 113.355 116.508 C117.346 119.592 119.421 122.898 121.355 127.508 C121.668 130.199 121.834 132.578 121.793 135.258 C121.784 135.964 121.775 136.671 121.766 137.399 C121.42 147.91 116.689 156.983 109.355 164.508 C104.962 166.296 101.891 164.915 97.605 163.258 C93.522 161.701 89.49 160.221 85.293 159.008 C81.284 157.703 79.267 155.569 76.355 152.508 C69.806 147.507 62.281 147.593 54.355 148.508 C50.12 149.726 47.263 151.782 43.855 154.508 C41.454 159.311 42.053 164.238 42.355 169.508 C41.732 169.795 41.108 170.083 40.465 170.379 C37.474 171.98 36.685 173.382 35.355 176.508 C34.33 182.35 35.27 186.722 38.645 191.578 C41.772 195.105 45.503 197.822 49.355 200.508 C49.118 201.279 49.118 201.279 48.875 202.066 C47.952 206.404 48.064 210.87 47.93 215.293 C47.355 218.508 47.355 218.508 45.625 220.414 C39.585 223.325 32.571 221.815 26.418 219.883 C15.495 215.872 4.768 211.566 -0.746 200.801 C-2.18 197.142 -1.966 195.207 -0.645 191.508 C1.023 189.176 2.806 186.979 4.633 184.77 C7.901 180.479 9.101 176.288 9.855 171.008 C9.182 166.294 7.482 163.085 4.355 159.508 C2.079 157.807 -0.048 156.733 -2.645 155.508 C-3.305 155.178 -3.965 154.848 -4.645 154.508 C-7.196 154.436 -9.719 154.415 -12.27 154.445 C-13.329 154.452 -13.329 154.452 -14.41 154.459 C-16.155 154.471 -17.9 154.489 -19.645 154.508 C-19.356 154.012 -19.067 153.515 -18.77 153.004 C-16.242 148.379 -14.591 144.873 -15.645 139.508 C-19.411 132.186 -26.781 128.979 -33.865 125.565 C-34.594 125.21 -35.323 124.854 -36.074 124.488 C-36.737 124.178 -37.399 123.867 -38.082 123.548 C-39.645 122.508 -39.645 122.508 -40.645 119.508 C-39.888 117.829 -39.13 116.151 -38.363 114.477 C-37.075 110.948 -37.215 108.249 -37.645 104.508 C-38.914 101.822 -38.914 101.822 -41.645 100.508 C-47.402 99.506 -52.131 100.876 -57.512 102.816 C-60.798 103.882 -63.239 104.097 -66.645 103.508 C-71.891 98.378 -73.895 94.144 -74.076 87.009 C-74.108 74.347 -71.589 64 -62.645 54.508 C-59.285 51.648 -57.462 50.608 -53.082 50.07 C-47.548 50.775 -45.097 52.858 -41.77 57.133 C-39.406 60.016 -38.736 60.48 -34.957 61.633 C-31.796 61.81 -31.796 61.81 -30.145 60.473 C-27.925 57.566 -26.69 54.311 -25.332 50.945 C-24.838 49.753 -24.838 49.753 -24.335 48.537 C-22.221 43.416 -20.147 38.279 -18.071 33.143 C-16.829 30.075 -15.581 27.01 -14.333 23.945 C-13.405 21.658 -12.487 19.367 -11.569 17.076 C-10.985 15.639 -10.401 14.202 -9.816 12.766 C-9.556 12.108 -9.296 11.45 -9.028 10.773 C-4.998 0.96 -4.998 0.96 0 0 Z " fill="#FEFEFE" transform="translate(324.64453125,422.4921875)"/></g><g><path d="M0 0 C3.974 -0.169 6.021 0.184 9.117 2.766 C18.846 13.221 25.889 25.437 32.5 38 C33.017 38.979 33.533 39.959 34.066 40.968 C38.114 48.826 40.184 55.995 41.062 64.75 C41.613 70.454 41.613 70.454 43 76 C43.188 77.374 43.339 78.752 43.465 80.133 C43.543 80.94 43.621 81.747 43.701 82.578 C43.857 84.252 44.01 85.927 44.162 87.602 C44.638 92.496 45.385 97.186 46.557 101.963 C47.014 104.063 47.253 106.111 47.438 108.25 C48.391 117.47 50.941 126.223 54 134.938 C54.249 135.647 54.498 136.357 54.755 137.088 C55.927 140.335 57.124 143.222 58.812 146.254 C60 149 60 149 59.441 151.059 C57.665 153.451 55.848 155.774 53.938 158.062 C53.129 159.034 52.321 160.006 51.488 161.008 C50.257 162.489 50.257 162.489 49 164 C47.541 165.812 46.083 167.625 44.625 169.438 C39.66 175.518 34.355 181.265 29 187 C25.555 185.852 25.203 185.189 23.188 182.312 C13.982 170.217 2.797 160.983 -9.555 152.254 C-20.227 144.612 -26.688 136.401 -32.85 124.868 C-38.089 115.069 -43.694 106.371 -51 98 C-51.689 97.204 -51.689 97.204 -52.391 96.392 C-57.817 90.168 -63.524 84.408 -69.809 79.035 C-72.186 76.827 -74.161 74.676 -76 72 C-76 70.68 -76 69.36 -76 68 C-63.602 69.161 -53.91 77.463 -44.938 85.484 C-39.216 90.587 -39.216 90.587 -32 92 C-32.575 85.987 -36.335 83.383 -40.672 79.668 C-50.45 71.673 -61.408 65.428 -72.503 59.461 C-87.382 51.258 -87.382 51.258 -89.781 44.945 C-90.062 43 -90.062 43 -90 40 C-87 38 -87 38 -84.871 38.137 C-80.778 39.367 -76.952 41.051 -73.062 42.812 C-71.76 43.4 -71.76 43.4 -70.432 43.999 C-61.797 47.97 -53.483 52.482 -45.184 57.105 C-44.341 57.575 -43.498 58.045 -42.63 58.528 C-40.772 59.568 -38.918 60.615 -37.068 61.667 C-36.102 62.209 -35.136 62.75 -34.141 63.309 C-32.832 64.05 -32.832 64.05 -31.497 64.806 C-27.934 66.51 -24.923 66.852 -21 67 C-24.057 57.364 -36.376 52.944 -44.75 48.5 C-45.803 47.935 -46.857 47.371 -47.942 46.789 C-56.52 42.209 -65.151 37.743 -73.957 33.613 C-74.858 33.184 -75.759 32.755 -76.688 32.312 C-77.454 31.958 -78.221 31.604 -79.012 31.238 C-81.353 29.78 -82.579 28.355 -84 26 C-83.759 22.63 -83.412 21.412 -81 19 C-71.854 17.646 -63.743 20.796 -55.477 24.312 C-49.124 26.974 -42.716 29.44 -36.25 31.812 C-35.179 32.219 -34.108 32.626 -33.004 33.045 C-27.067 35.217 -22.326 36.512 -16 36 C-15.814 35.134 -15.814 35.134 -15.625 34.25 C-14.512 30.242 -12.557 27.254 -10 24 C-6.339 25.22 -6.077 26.126 -4.312 29.438 C-3.876 30.241 -3.439 31.044 -2.988 31.871 C-2 34 -2 34 -2 36 C-0.337 36.676 1.331 37.339 3 38 C3.605 38.264 4.209 38.529 4.832 38.801 C9.788 40.863 13.638 41.287 19 41 C19 40.34 19 39.68 19 39 C17.017 37.73 14.987 36.535 12.938 35.375 C5.455 30.929 -0.111 26.47 -2.938 17.938 C-4.359 12.135 -5.112 7.911 -2 2.562 C-1.34 1.717 -0.68 0.871 0 0 Z " fill="#FEFEFE" transform="translate(457,562)"/></g><g><path d="M0 0 C0.931 -0.001 1.863 -0.003 2.822 -0.004 C3.785 -0 4.747 0.004 5.738 0.008 C6.681 0.004 7.624 0 8.596 -0.004 C17.929 0.009 26.498 0.419 35.238 3.883 C35.927 4.147 36.615 4.412 37.324 4.684 C42.112 6.589 46.103 8.777 50.051 12.133 C49.176 16.008 49.176 16.008 48.051 17.133 C45.699 17.26 43.343 17.309 40.988 17.32 C39.698 17.334 38.408 17.349 37.078 17.363 C33.628 17.277 30.582 16.507 27.25 15.598 C11.248 12.214 -5.28 15.275 -19.25 23.371 C-32.011 31.684 -32.011 31.684 -39.527 44.41 C-39.888 46.838 -39.888 46.838 -39.949 50.133 C-36.051 48.034 -33.536 45.765 -30.699 42.383 C-21.402 31.843 -9.663 24.116 4.682 22.912 C7.642 22.792 10.589 22.753 13.551 22.758 C15.132 22.759 15.132 22.759 16.746 22.76 C27.762 22.926 38.341 24.585 48.051 30.133 C48.926 32.32 48.926 32.32 49.051 34.133 C47.231 36.086 45.713 37.056 43.043 37.367 C40.459 37.397 37.891 37.338 35.309 37.25 C33.335 37.217 31.361 37.184 29.387 37.152 C26.295 37.085 23.204 37.009 20.113 36.92 C5.248 36.525 -8.401 36.599 -20.527 46.574 C-22.605 48.852 -23.379 51.14 -23.949 54.133 C-17.949 51.847 -12.212 49.348 -6.566 46.281 C1.365 42.801 8.948 42.827 17.488 42.883 C19.253 42.871 19.253 42.871 21.053 42.859 C30.501 42.88 38.409 43.254 46.051 49.133 C45.721 50.123 45.391 51.113 45.051 52.133 C39.581 54.708 33.425 54.875 27.488 55.508 C12.217 57.298 -1.202 60.487 -12.949 71.133 C-14.883 74.034 -15.251 75.03 -15.574 78.32 C-15.76 80.207 -15.76 80.207 -15.949 82.133 C-12.647 80.432 -10.346 78.544 -7.887 75.82 C-0.736 68.499 8.993 64.987 19.051 64.133 C20.198 64.005 21.345 63.878 22.527 63.746 C27.11 64.249 28.85 66.289 31.613 69.695 C32.085 70.247 32.557 70.798 33.043 71.366 C33.974 72.457 34.898 73.554 35.813 74.659 C37.327 76.462 38.943 78.163 40.551 79.883 C44.314 84.319 45.701 89.549 47.051 95.133 C48.041 94.803 49.031 94.473 50.051 94.133 C50.947 85.399 49.387 80.077 44.051 73.133 C41.953 70.675 39.82 68.284 37.59 65.945 C36.051 64.133 36.051 64.133 36.051 62.133 C36.703 61.963 37.355 61.793 38.027 61.617 C43.405 60.126 47.667 58.618 52.051 55.133 C54.035 51.165 53.377 46.278 52.051 42.133 C52.711 42.133 53.371 42.133 54.051 42.133 C55.461 46.363 55.401 50.641 55.568 55.064 C55.726 58.242 55.994 60.975 57.07 63.98 C58.498 68.57 58.346 72.98 58.301 77.758 C58.297 78.747 58.293 79.736 58.289 80.755 C58.219 86.682 57.671 92.208 56.512 98.023 C54.864 109.141 55.214 120.014 59.176 130.566 C60.051 133.133 60.051 133.133 60.051 137.133 C43.017 147.287 25.367 155.542 5.051 154.133 C4.953 153.201 4.855 152.269 4.754 151.309 C1.886 126.855 -8.218 108.646 -26.949 92.695 C-34.788 85.908 -40.68 79.349 -42.863 68.988 C-43.896 64.258 -45.138 59.605 -46.449 54.945 C-46.662 54.178 -46.875 53.41 -47.094 52.619 C-48.013 49.328 -48.965 46.087 -50.082 42.855 C-51.817 37.409 -51.754 32.251 -49.387 27.008 C-41.936 14.046 -27.039 6.157 -13.191 1.973 C-8.722 0.815 -4.626 0.006 0 0 Z " fill="#FEFEFE" transform="translate(248.94921875,571.8671875)"/></g><g><path d="M0 0 C14.618 -0.989 27.953 6.47 40.973 12.336 C40.54 13.512 40.106 14.687 39.66 15.898 C35.456 28.632 31.88 43.107 37.629 55.816 C40.468 61.139 43.518 66.735 47.676 71.141 C49.646 74.476 49.289 77.834 49.16 81.586 C49.147 82.331 49.133 83.076 49.119 83.844 C49.084 85.675 49.03 87.505 48.973 89.336 C40.736 88.009 32.915 85.536 24.998 82.984 C21.831 81.97 18.652 80.998 15.473 80.023 C14.41 79.697 13.348 79.371 12.254 79.035 C11.501 78.804 10.748 78.574 9.973 78.336 C9.89 77.284 9.808 76.232 9.723 75.148 C8.878 70.854 8.21 69.25 4.973 66.336 C2.035 65.075 -0.937 64.148 -4.027 63.336 C-3.395 64.258 -3.395 64.258 -2.75 65.199 C-2.202 66.007 -1.654 66.816 -1.09 67.648 C-0.545 68.449 0.001 69.249 0.562 70.074 C2.795 73.654 3.089 76.397 3.035 80.523 C3.026 81.424 3.017 82.326 3.008 83.254 C2.996 83.941 2.985 84.628 2.973 85.336 C1.917 83.752 0.871 82.158 -0.07 80.504 C-3.779 74.087 -8.678 68.493 -15.816 65.812 C-22.828 64.301 -30.534 63.881 -36.84 67.648 C-39.494 69.533 -39.956 70.122 -41.027 73.336 C-39.975 73.006 -38.924 72.676 -37.84 72.336 C-29.854 70.414 -21.873 69.787 -14.527 73.898 C-8.483 78.069 -4.652 83.101 -3.027 90.336 C-2.195 98.801 -4.908 105.02 -10.215 111.586 C-15.916 117.613 -21.202 120.592 -29.59 120.961 C-36.524 120.67 -40.625 118.666 -45.516 113.879 C-51.68 106.988 -52.49 100.994 -52.332 92.043 C-52.004 88.056 -51.18 84.832 -49.695 81.145 C-48.84 78.828 -48.791 76.78 -49.027 74.336 C-51.007 73.346 -52.987 72.356 -55.027 71.336 C-54.862 70.387 -54.697 69.438 -54.527 68.461 C-53.427 60.188 -53.236 54.436 -57.934 47.246 C-59.027 45.336 -59.027 45.336 -59.027 42.336 C-58.367 41.676 -57.707 41.016 -57.027 40.336 C-56.747 38.228 -56.747 38.228 -56.84 35.898 C-56.846 35.116 -56.853 34.334 -56.859 33.527 C-56.952 31.158 -56.952 31.158 -58.027 28.336 C-60.956 27.165 -60.956 27.165 -64.027 26.336 C-64.687 26.006 -65.347 25.676 -66.027 25.336 C-67.695 25.252 -69.366 25.229 -71.035 25.238 C-72.021 25.242 -73.007 25.245 -74.023 25.248 C-75.572 25.261 -75.572 25.261 -77.152 25.273 C-78.193 25.278 -79.233 25.282 -80.305 25.287 C-82.879 25.299 -85.453 25.315 -88.027 25.336 C-86.907 23.042 -85.782 20.751 -84.652 18.461 C-84.335 17.81 -84.018 17.159 -83.691 16.488 C-82.338 13.754 -81.2 11.508 -79.027 9.336 C-75.987 8.842 -73.005 8.462 -69.945 8.152 C-68.559 8.001 -68.559 8.001 -67.145 7.846 C-64.169 7.522 -61.192 7.21 -58.215 6.898 C-54.354 6.488 -50.493 6.072 -46.633 5.652 C-45.676 5.549 -44.719 5.445 -43.733 5.338 C-35.255 4.401 -26.822 3.221 -18.386 1.969 C-12.263 1.065 -6.14 0.681 0 0 Z " fill="#FEFEFE" transform="translate(629.02734375,247.6640625)"/></g><g><path d="M0 0 C1.65 0.33 3.3 0.66 5 1 C4.505 2.134 4.01 3.269 3.5 4.438 C0.74 12.769 0.251 23.91 3.625 32.125 C4.723 34.155 4.723 34.155 6 36 C6.389 36.62 6.779 37.24 7.18 37.879 C11.872 44.307 19.282 48.147 27.023 49.547 C36.788 50.008 45.326 46.542 52.812 40.375 C61.49 32.029 66.545 21.879 68 10 C68.33 9.67 68.66 9.34 69 9 C77.075 9.313 84.465 12.379 92 15.062 C93.36 15.54 94.721 16.018 96.082 16.494 C99.391 17.654 102.696 18.824 106 20 C106.092 24.853 105.432 28.549 103.938 33.188 C103.721 33.867 103.505 34.546 103.283 35.245 C101.988 39.239 100.573 43.173 99.074 47.094 C98.751 47.942 98.429 48.79 98.096 49.663 C97.459 51.319 96.81 52.97 96.148 54.616 C93.974 60.192 93.974 60.192 95 66 C95.33 66.66 95.66 67.32 96 68 C95.404 68.556 94.809 69.111 94.195 69.684 C91.976 72.026 90.503 74.285 88.875 77.062 C85.552 82.392 81.794 86.957 77.434 91.473 C75.028 93.874 75.028 93.874 73.285 96.246 C70.722 99.244 68.71 100.789 64.702 101.283 C58.791 101.593 52.903 101.384 47 101 C46.974 100.022 46.948 99.043 46.922 98.035 C46.523 88.806 45.711 81.513 39.688 74.188 C32.712 68.509 26.974 66.826 18.062 66.875 C17.359 66.871 16.656 66.867 15.932 66.863 C13.113 66.869 10.426 66.911 7.66 67.489 C2.161 68.545 -3.48 68.356 -9.062 68.438 C-10.323 68.483 -11.583 68.529 -12.881 68.576 C-20.965 68.672 -26.436 67.491 -33.418 63.352 C-37.309 61.314 -40.741 61.15 -45 62 C-48.851 63.369 -50.288 65.185 -52.125 68.688 C-53.963 72.714 -55.512 76.833 -57 81 C-59.97 81 -62.94 81 -66 81 C-66.584 64.494 -65.208 47.771 -60 32 C-59.227 32.361 -58.453 32.722 -57.656 33.094 C-48.627 37.117 -42.635 37.606 -33 36 C-33.433 36.785 -33.866 37.57 -34.312 38.379 C-38.765 46.244 -38.765 46.244 -39 55 C-36.802 58.533 -34.822 60.44 -31 62 C-28.813 62.257 -28.813 62.257 -26.523 62.16 C-25.688 62.149 -24.853 62.138 -23.992 62.127 C-23.129 62.106 -22.265 62.084 -21.375 62.062 C-19.654 62.028 -17.932 61.998 -16.211 61.973 C-15.451 61.955 -14.691 61.937 -13.908 61.918 C-12 62 -12 62 -10 63 C-6.958 63.167 -6.958 63.167 -4 63 C-2.704 61.934 -2.704 61.934 -2.938 59.438 C-2.958 58.633 -2.979 57.829 -3 57 C-6.145 55.167 -8.511 54.732 -12.133 54.656 C-13.589 54.612 -13.589 54.612 -15.074 54.566 C-17.116 54.522 -19.158 54.478 -21.199 54.434 C-22.651 54.389 -22.651 54.389 -24.133 54.344 C-25.019 54.325 -25.904 54.306 -26.817 54.287 C-29 54 -29 54 -31 52 C-31.564 47.776 -30.525 45.769 -28 42.438 C-25.247 38.705 -22.606 34.941 -20.062 31.062 C-17.481 27.158 -14.809 23.368 -12 19.625 C-7.415 13.411 -3.709 6.758 0 0 Z " fill="#FEFEFE" transform="translate(569,326)"/></g><g><path d="M0 0 C0.748 0.482 1.495 0.964 2.266 1.461 C3.743 2.408 3.743 2.408 5.25 3.375 C6.225 4.001 7.199 4.628 8.203 5.273 C9.126 5.843 10.049 6.413 11 7 C11.624 7.394 12.248 7.789 12.891 8.195 C16.062 9.405 19.122 9.367 22.5 9.5 C29.561 9.778 29.561 9.778 31.984 11.004 C35.116 12.552 38.326 12.426 41.75 12.438 C42.49 12.441 43.23 12.444 43.992 12.447 C50.802 12.303 62.92 11.08 68 6 C72.877 5.504 75.023 5.399 79.25 8 C84.045 12.586 86.783 19.058 87.145 25.635 C87.339 51.115 87.339 51.115 85 62 C84.656 63.738 84.315 65.476 83.977 67.215 C83.01 72.149 82.011 77.075 81 82 C72.591 84.837 64.338 86.81 55.617 88.34 C52.799 88.854 50.075 89.442 47.312 90.188 C44.339 90.917 42.027 91.067 39 91 C38.985 89.724 38.971 88.447 38.956 87.132 C38.898 82.389 38.821 77.646 38.738 72.903 C38.704 70.852 38.676 68.8 38.654 66.749 C38.62 63.797 38.568 60.846 38.512 57.895 C38.505 56.98 38.499 56.065 38.492 55.123 C38.37 49.809 37.949 45.949 34 42 C27.845 41.106 24.624 41.788 19.5 45.375 C10.796 52.295 4.471 60.356 -1.371 69.727 C-1.909 70.477 -2.446 71.227 -3 72 C-3.66 72 -4.32 72 -5 72 C-6.302 69.505 -7.592 67.005 -8.875 64.5 C-9.24 63.804 -9.605 63.108 -9.98 62.391 C-12.403 57.634 -13.865 53.217 -15 48 C-15.22 47.174 -15.441 46.347 -15.668 45.496 C-15.839 44.817 -16.011 44.137 -16.188 43.438 C-16.367 42.756 -16.546 42.074 -16.73 41.371 C-17.48 34.778 -15.118 29.278 -12.438 23.438 C-12.087 22.66 -11.736 21.882 -11.375 21.081 C-8.024 13.787 -4.151 6.866 0 0 Z " fill="#FEFEFE" transform="translate(522,401)"/></g><g><path d="M0 0 C7.425 0.99 7.425 0.99 15 2 C14.009 10.386 12.914 18.687 11.438 27 C10.21 33.988 9.654 40.782 9.309 47.871 C8.973 53.276 8.099 58.601 7.115 63.922 C6.415 67.787 5.922 71.339 6.133 75.27 C6.266 79.476 6.168 83.297 4 87 C-1.44 92.305 -8.343 95.803 -14.984 99.373 C-17.789 100.886 -20.54 102.462 -23.285 104.082 C-30.567 108.361 -37.934 112.454 -45.406 116.391 C-46.483 116.962 -47.561 117.533 -48.67 118.121 C-50.747 119.217 -52.83 120.302 -54.919 121.373 C-63.594 125.947 -69.192 131.455 -74.75 139.438 C-75.368 140.32 -75.368 140.32 -75.998 141.22 C-77.34 143.142 -78.67 145.071 -80 147 C-80.993 148.43 -81.987 149.86 -82.98 151.289 C-88.052 158.489 -88.052 158.489 -92.691 165.965 C-93.339 166.972 -93.339 166.972 -94 168 C-94.66 168 -95.32 168 -96 168 C-96.037 166.86 -96.075 165.721 -96.113 164.547 C-96.69 149.759 -98.089 135.14 -102.188 120.875 C-103.777 115.23 -105.151 109.856 -104 104 C-102.204 101.066 -101.056 99.528 -98 98 C-95.751 97.919 -93.5 97.861 -91.25 97.812 C-66.146 96.658 -40.313 85.637 -22.965 67.352 C-14.728 57.493 -10.682 48.614 -10.688 35.875 C-10.468 26.172 -8.378 19.691 -4 11 C-2.581 7.359 -1.296 3.687 0 0 Z " fill="#FEFEFE" transform="translate(682,421)"/></g><g><path d="M0 0 C0.693 -0.004 1.387 -0.008 2.101 -0.012 C14.765 -0.046 26.965 1.09 39.25 4.312 C41.061 4.593 42.874 4.863 44.688 5.125 C52.759 6.419 60.459 8.896 68.25 11.312 C69.446 11.679 70.643 12.045 71.875 12.422 C74.03 13.083 76.184 13.748 78.336 14.418 C80.169 14.981 82.007 15.527 83.852 16.051 C90.562 17.958 96.847 20.556 103.25 23.312 C104.885 23.995 106.52 24.676 108.156 25.355 C143.91 40.296 143.91 40.296 150.312 52.75 C151.522 57.345 151.506 61.592 151.25 66.312 C153.044 66.405 153.044 66.405 154.875 66.5 C170.272 68.291 182.352 76.175 192.305 87.715 C199.817 97.747 201.451 108.079 200.25 120.312 C199.292 123.893 198.036 127.068 196.25 130.312 C195.92 130.312 195.59 130.312 195.25 130.312 C195.129 129.274 195.008 128.235 194.883 127.164 C194.374 122.875 193.819 118.594 193.25 114.312 C193.129 113.366 193.008 112.42 192.883 111.445 C191.386 102.13 187.357 92.848 179.766 86.98 C167.063 78.548 167.063 78.548 152.18 76.656 C147.302 77.749 144.074 80.215 140.25 83.312 C138.615 84.433 136.969 85.537 135.312 86.625 C134.216 87.362 134.216 87.362 133.098 88.113 C129.865 90.211 127.505 90.518 123.688 90.938 C116.205 92.158 111.557 95.369 106.727 101.129 C105.349 103.128 104.285 105.116 103.25 107.312 C102.881 108.082 102.513 108.852 102.133 109.645 C97.873 120.263 97.924 132.023 97.25 143.312 C91.724 136.145 90.285 130.27 91.25 121.312 C92.961 111.625 95.398 103.381 101.25 95.312 C101.889 94.384 102.529 93.456 103.188 92.5 C109.233 86.088 115.264 83.419 124.062 83.062 C130.402 82.605 134.679 80.753 139.25 76.312 C142.429 71.206 143.142 66.194 142.25 60.312 C139.664 51.879 133.069 47.008 125.555 42.991 C124.877 42.643 124.199 42.296 123.5 41.938 C122.774 41.56 122.048 41.182 121.3 40.792 C109.391 34.708 96.905 29.623 84.25 25.312 C82.898 24.843 82.898 24.843 81.52 24.363 C72.845 21.402 64.075 18.783 55.25 16.312 C54.476 16.094 53.702 15.876 52.905 15.651 C22.302 7.137 -11.885 3.032 -41.75 16.312 C-42.245 16.808 -42.245 16.808 -42.75 17.312 C-44.353 17.421 -45.957 17.498 -47.562 17.562 C-55.114 18.193 -63.249 20.53 -68.875 25.875 C-72.423 30.487 -73.367 33.353 -72.75 39.312 C-68.846 47.277 -61.513 49.652 -53.617 52.43 C-49.386 53.732 -45.114 54.593 -40.75 55.312 C-40.75 55.642 -40.75 55.972 -40.75 56.312 C-65.887 57.328 -65.887 57.328 -75.5 49.688 C-77.75 47.312 -77.75 47.312 -78.75 45.312 C-81.872 46.621 -81.872 46.621 -83.75 49.312 C-84.401 57.343 -84.856 65.627 -79.75 72.312 C-77.26 74.423 -74.69 75.914 -71.75 77.312 C-70.946 77.704 -70.141 78.096 -69.312 78.5 C-60.769 81.209 -52.917 81.628 -44 81.562 C-42.721 81.559 -41.442 81.555 -40.124 81.551 C-31.655 81.474 -23.329 80.975 -14.916 80.029 C-7.168 79.171 0.459 79.114 8.25 79.312 C5.97 81.593 5.108 81.724 2.016 82.277 C1.143 82.436 0.271 82.595 -0.628 82.759 C-1.576 82.921 -2.523 83.083 -3.5 83.25 C-4.487 83.421 -5.474 83.592 -6.491 83.769 C-9.576 84.295 -12.663 84.804 -15.75 85.312 C-16.66 85.469 -17.57 85.626 -18.507 85.788 C-29.688 87.693 -40.652 88.585 -52 88.625 C-53.119 88.63 -54.237 88.636 -55.389 88.642 C-67.435 88.537 -75.747 87.236 -84.473 78.609 C-90.127 72.441 -92.326 66.391 -92.25 58.125 C-92.24 57.009 -92.24 57.009 -92.23 55.871 C-91.778 42.072 -83.763 30.824 -74 21.562 C-53.243 3.968 -26.312 0.091 0 0 Z " fill="#F2F3F3" transform="translate(580.75,161.6875)"/></g><g><path d="M0 0 C4.323 3.864 6.673 7.718 9.125 12.938 C9.459 13.628 9.793 14.318 10.137 15.029 C10.791 16.382 11.439 17.738 12.081 19.096 C12.934 20.863 13.849 22.599 14.77 24.332 C16 27 16 27 15.562 29.75 C5.886 49.878 -10.259 60.907 -30.957 68.233 C-33.95 69.235 -36.966 70.132 -40 71 C-40.834 71.246 -41.668 71.492 -42.527 71.746 C-55.08 74.857 -68.693 74.495 -80 68 C-82.446 66.479 -84.826 64.921 -87.16 63.234 C-89.087 61.823 -89.087 61.823 -92 61 C-92.848 54.433 -93.126 48.054 -93.062 41.438 C-93.058 40.524 -93.053 39.611 -93.049 38.67 C-93.037 36.447 -93.021 34.223 -93 32 C-91.969 32.524 -91.969 32.524 -90.918 33.059 C-90.017 33.514 -89.116 33.969 -88.188 34.438 C-87.294 34.89 -86.401 35.342 -85.48 35.809 C-79.833 38.521 -74.655 38.22 -68.5 38.25 C-67.461 38.271 -66.422 38.291 -65.352 38.312 C-58.078 38.349 -51.916 37.166 -45 35 C-43.46 34.618 -41.919 34.242 -40.375 33.875 C-26.247 29.565 -10.938 20.868 -3.117 8.121 C-1.733 5.493 -0.737 2.876 0 0 Z " fill="#FEFEFE" transform="translate(328,696)"/></g><g><path d="M0 0 C4.939 3.554 8.821 7.7 10.242 13.703 C11.765 28.031 8.064 37.644 -0.758 48.703 C-8.983 58.758 -22.024 66.182 -34.758 68.703 C-46.277 69.53 -46.277 69.53 -51.758 67.703 C-50.434 59.071 -48.222 50.849 -45.633 42.516 C-45.435 41.88 -45.238 41.244 -45.034 40.588 C-40.389 25.745 -35.227 9.766 -21.695 0.703 C-15.011 -2.634 -6.819 -3.207 0 0 Z " fill="#FEFEFE" transform="translate(737.7578125,344.296875)"/></g><g><path d="M0 0 C3.663 2.961 6.836 5.833 8.75 10.25 C8.812 10.951 8.874 11.652 8.938 12.375 C9.082 13.53 9.226 14.685 9.375 15.875 C9.244 23.666 4.459 31.115 -0.625 36.75 C-6.382 42.032 -14.462 46.485 -22.375 47.062 C-27.758 46.059 -32.047 44.029 -35.418 39.59 C-39.136 33.268 -39.992 27.571 -39.062 20.375 C-35.799 10.681 -30.48 4.734 -21.938 -0.562 C-15.497 -2.937 -6.149 -3.23 0 0 Z " fill="#FEFEFE" transform="translate(547.0625,309.625)"/></g><g><path d="M0 0 C-3.084 13.493 -6.39 26.294 -12 39 C-12.285 39.665 -12.57 40.33 -12.864 41.016 C-19.598 56.662 -28.446 69.919 -44 78 C-44.66 78 -45.32 78 -46 78 C-48.409 66.065 -51.055 50.867 -44 40 C-40.498 35.92 -36.619 32.236 -32.725 28.535 C-25.814 21.968 -20.266 15.83 -17.688 6.438 C-16 3 -16 3 -13.707 2.102 C-11.136 1.59 -8.605 1.278 -6 1 C-3 0 -3 0 0 0 Z " fill="#FEFEFE" transform="translate(682,392)"/></g><g><path d="M0 0 C14.973 1.557 30.437 9.439 40.477 20.586 C44.449 26.414 46.448 31.545 45.477 38.586 C44.352 41.086 44.352 41.086 42.477 42.586 C39.431 43.209 37.472 43.122 34.707 41.633 C31.877 39.684 29.54 37.654 27.184 35.137 C19.745 28.127 8.333 24.084 -1.562 21.922 C-11.745 19.667 -11.745 19.667 -15.523 14.586 C-16.975 11.683 -16.896 9.813 -16.523 6.586 C-11.997 -0.315 -8.006 -0.426 0 0 Z " fill="#070707" transform="translate(608.5234375,279.4140625)"/></g><g><path d="M0 0 C1.223 0.006 2.447 0.011 3.707 0.017 C19.164 0.32 35.119 3.665 46.695 14.715 C47.25 15.304 47.804 15.893 48.375 16.5 C47.375 19.5 47.375 19.5 45.688 20.688 C40.767 22.416 36.609 21.447 31.875 19.625 C12.159 12.786 -10.683 13.575 -29.758 22.027 C-33.842 24.125 -37.65 26.565 -41.445 29.145 C-43.625 30.5 -43.625 30.5 -45.625 30.5 C-45.133 23.165 -44.088 16.81 -39.625 10.812 C-28.249 2.044 -13.983 -0.076 0 0 Z " fill="#FEFEFE" transform="translate(253.625,548.5)"/></g><g><path d="M0 0 C1.98 0.66 3.96 1.32 6 2 C5.198 8.05 3.468 13.828 1.812 19.688 C1.394 21.197 1.394 21.197 0.967 22.736 C-0.631 28.424 -2.332 34.066 -4.15 39.687 C-7.599 50.375 -10.445 61.143 -13.062 72.062 C-13.277 72.949 -13.491 73.835 -13.712 74.747 C-17.906 92.102 -21.88 109.511 -24.062 127.25 C-24.73 132.244 -25.453 135.352 -29 139 C-31.75 140.375 -31.75 140.375 -34 141 C-34.372 132.651 -33.243 124.722 -31.875 116.5 C-31.765 115.827 -31.655 115.155 -31.542 114.461 C-29.458 101.77 -26.738 89.27 -23.676 76.778 C-22.911 73.634 -22.185 70.481 -21.475 67.324 C-17.96 52.117 -13.576 37.217 -8.606 22.426 C-7.796 20.013 -6.996 17.598 -6.197 15.182 C-5.68 13.633 -5.163 12.084 -4.645 10.535 C-4.29 9.462 -4.29 9.462 -3.928 8.367 C-2.873 5.246 -1.84 2.76 0 0 Z " fill="#070707" transform="translate(480,858)"/></g><g><path d="M0 0 C6.148 0.143 11.97 1.601 17.922 3.047 C19.076 3.321 20.229 3.594 21.418 3.876 C29.109 5.727 36.681 7.743 44.172 10.297 C45.085 10.597 45.997 10.898 46.938 11.207 C49.019 11.893 51.096 12.593 53.172 13.297 C53.859 15.609 53.859 15.609 54.172 18.297 C52.936 19.974 52.936 19.974 51.172 21.297 C43.905 21.036 36.913 19.224 29.859 17.547 C28.164 17.148 28.164 17.148 26.434 16.741 C23.011 15.933 19.592 15.115 16.172 14.297 C15.141 14.053 14.111 13.81 13.049 13.559 C10.255 12.897 7.463 12.224 4.672 11.547 C3.836 11.349 3 11.15 2.139 10.946 C-3.596 9.529 -3.596 9.529 -5.828 7.297 C-6.078 4.797 -6.078 4.797 -5.828 2.297 C-3.828 0.297 -3.828 0.297 0 0 Z " fill="#070707" transform="translate(619.828125,675.703125)"/></g><g><path d="M0 0 C2.438 1.562 2.438 1.562 3.438 2.562 C3.478 4.229 3.48 5.896 3.438 7.562 C2.654 7.397 1.87 7.233 1.062 7.062 C-3.502 6.433 -7.963 6.481 -12.562 6.562 C-11.786 9.839 -11.786 9.839 -8.562 11.812 C-5.889 13.951 -5.565 14.553 -4.5 18.062 C-4.572 22.117 -4.869 23.543 -7.562 26.562 C-14.725 31.157 -21.245 31.726 -29.562 31.562 C-28.805 27.758 -28.805 27.758 -26.625 26 C-22.408 24.021 -18.048 22.79 -13.562 21.562 C-13.562 20.572 -13.562 19.582 -13.562 18.562 C-15.578 17.122 -15.578 17.122 -18.062 15.812 C-22.449 13.024 -22.449 13.024 -23.438 9 C-22.221 4.222 -19.881 1.95 -15.695 -0.555 C-10.591 -2.667 -5 -2.018 0 0 Z " fill="#070707" transform="translate(734.5625,355.4375)"/></g><g><path d="M0 0 C5.11 3.126 8.169 6.327 10.375 11.891 C11.347 17.608 9.923 21.795 7.375 26.891 C5.131 24.79 3.576 22.666 1.938 20.078 C-2.714 13.853 -9.495 10.598 -17.07 9.301 C-19.933 9.054 -22.753 8.901 -25.625 8.891 C-24.364 5.023 -23.292 3.122 -19.75 1.078 C-13.397 -2.129 -6.639 -2.806 0 0 Z " fill="#F2F3F3" transform="translate(556.625,291.109375)"/></g><g><path d="M0 0 C6.608 0.087 10.534 2.221 15.438 6.5 C16.014 6.978 16.59 7.456 17.184 7.949 C18.438 9.5 18.438 9.5 18.438 13.5 C15.962 13.005 15.962 13.005 13.438 12.5 C13.417 13.201 13.396 13.902 13.375 14.625 C11.982 18.896 9.171 21.119 5.438 23.5 C2.688 24.125 2.688 24.125 0.438 23.5 C-2.364 20.523 -2.954 18.484 -2.875 14.438 C-2.871 13.58 -2.867 12.723 -2.863 11.84 C-2.562 9.5 -2.562 9.5 -0.562 6.5 C-3.533 6.5 -6.503 6.5 -9.562 6.5 C-6.858 1.091 -5.877 0.18 0 0 Z " fill="#070707" transform="translate(594.5625,326.5)"/></g><g><path d="M0 0 C3.331 1.636 5.199 2.908 7.375 5.875 C8.188 8.638 8.13 11.138 8 14 C7.01 14 6.02 14 5 14 C3.962 15.643 2.964 17.312 2 19 C-1.496 21.33 -2.887 21.588 -7 21 C-9.917 18.39 -10.898 16.834 -11.375 12.938 C-11.018 10.139 -10.466 8.382 -9 6 C-11.31 6.33 -13.62 6.66 -16 7 C-15.639 4.38 -15.242 3.228 -13.289 1.391 C-9.158 -1.119 -4.672 -0.615 0 0 Z " fill="#070707" transform="translate(543,319)"/></g><g><path d="M0 0 C1.32 0 2.64 0 4 0 C3.93 2.929 3.621 5.171 1.832 7.559 C-5.175 14.22 -14.609 17.26 -24.125 17.562 C-32.321 17.251 -39.565 15.175 -46 10 C-45.67 9.01 -45.34 8.02 -45 7 C-41.039 7.417 -37.542 7.823 -33.75 9.062 C-23.397 11.651 -14.416 9.879 -5 5 C-3.083 3.452 -1.64 1.851 0 0 Z " fill="#121212" transform="translate(587,414)"/></g><g><path d="M0 0 C3 2.062 3 2.062 5 5 C5.627 8.448 5.8 10.685 3.938 13.746 C1.236 17.099 -0.544 18.806 -4.812 19.375 C-9.04 18.878 -10.328 17.206 -13 14 C-14.471 11.058 -14.44 9.27 -14 6 C-10.449 0.208 -6.532 -1.14 0 0 Z " fill="#070707" transform="translate(484,954)"/></g><g><path d="M0 0 C2.778 1.383 3.862 2.549 6 5 C6.634 8.945 6.368 11.171 4.75 14.812 C2.095 18.131 0.227 18.817 -3.938 19.438 C-7 19 -7 19 -9.875 17.062 C-12.36 13.482 -12.745 11.435 -12.48 7.16 C-11.009 0.547 -6.108 -1.072 0 0 Z " fill="#070707" transform="translate(582,642)"/></g><g><path d="M0 0 C1.268 1.237 1.268 1.237 2.562 2.5 C5.219 4.723 5.969 4.997 9.625 5.375 C12.202 5.089 14.538 4.788 17 4 C12.379 10.374 5.039 17.695 -3 19 C-3.081 16.771 -3.139 14.542 -3.188 12.312 C-3.222 11.071 -3.257 9.83 -3.293 8.551 C-2.985 4.814 -2.181 2.994 0 0 Z " fill="#F2F3F3" transform="translate(460,754)"/></g><g><path d="M0 0 C0.99 0.99 1.98 1.98 3 3 C6.149 2.767 6.149 2.767 9 2 C9.33 2.99 9.66 3.98 10 5 C10.99 5.33 11.98 5.66 13 6 C9.326 8.955 5.432 10.719 1.145 12.621 C-1.175 13.809 -1.175 13.809 -1.801 16.16 C-1.867 16.767 -1.932 17.374 -2 18 C-1.036 17.651 -0.072 17.301 0.922 16.941 C2.198 16.482 3.474 16.022 4.75 15.562 C5.384 15.332 6.018 15.102 6.672 14.865 C9.754 13.758 12.798 12.703 16 12 C16 12.66 16 13.32 16 14 C13.631 15.181 11.256 16.345 8.875 17.5 C8.21 17.834 7.545 18.168 6.859 18.512 C6.202 18.828 5.545 19.143 4.867 19.469 C4.27 19.762 3.673 20.055 3.058 20.357 C1 21 1 21 -5 21 C-2.525 10.605 -2.525 10.605 0 0 Z " fill="#F2F3F3" transform="translate(614,459)"/></g><g><path d="M0 0 C0.33 0.66 0.66 1.32 1 2 C0.67 2.66 0.34 3.32 0 4 C-0.744 11.444 1.91 16.213 6.25 22 C6.827 22.66 7.405 23.32 8 24 C3.132 23.547 0.514 22.417 -3 19 C-5.691 14.581 -5.838 10.035 -5 5 C-3.546 2.715 -2.204 1.653 0 0 Z " fill="#F2F3F3" transform="translate(551,184)"/></g><g><path d="M0 0 C-1.125 2.972 -2.223 5.334 -4 8 C-12.25 7.34 -20.5 6.68 -29 6 C-29 5.67 -29 5.34 -29 5 C-25.04 5 -21.08 5 -17 5 C-17 4.34 -17 3.68 -17 3 C-16.325 2.951 -15.649 2.902 -14.953 2.852 C-14.061 2.777 -13.169 2.702 -12.25 2.625 C-11.368 2.555 -10.487 2.486 -9.578 2.414 C-5.976 1.836 -3.692 0 0 0 Z " fill="#DBDBDB" transform="translate(277,533)"/></g><g><path d="M0 0 C2 4 2 4 1.125 6.75 C0.754 7.493 0.383 8.235 0 9 C0.964 8.651 1.928 8.301 2.922 7.941 C4.198 7.482 5.474 7.022 6.75 6.562 C7.384 6.332 8.018 6.102 8.672 5.865 C11.754 4.758 14.798 3.703 18 3 C18 3.66 18 4.32 18 5 C15.631 6.181 13.256 7.345 10.875 8.5 C10.21 8.834 9.545 9.168 8.859 9.512 C7.873 9.985 7.873 9.985 6.867 10.469 C6.27 10.762 5.673 11.055 5.058 11.357 C3 12 3 12 -3 12 C-2.01 8.04 -1.02 4.08 0 0 Z " fill="#DBDBDB" transform="translate(612,468)"/></g><g><path d="M0 0 C5.28 0 10.56 0 16 0 C13.635 2.365 12.36 2.549 9.125 3.188 C8.261 3.367 7.398 3.546 6.508 3.73 C4.008 3.999 2.369 3.777 0 3 C0 2.01 0 1.02 0 0 Z " fill="#BABABA" transform="translate(573,241)"/></g><g><path d="M0 0 C2 4 2 4 1.125 6.75 C0.754 7.493 0.383 8.235 0 9 C1.32 9 2.64 9 4 9 C3.67 9.99 3.34 10.98 3 12 C1.02 12 -0.96 12 -3 12 C-2.01 8.04 -1.02 4.08 0 0 Z " fill="#C7C7C8" transform="translate(612,468)"/></g><g><path d="M0 0 C0.66 0.33 1.32 0.66 2 1 C0.625 3 0.625 3 -1 5 C-1.66 5 -2.32 5 -3 5 C-4.707 6.626 -6.377 8.291 -8 10 C-8.66 9.67 -9.32 9.34 -10 9 C-8.711 7.684 -7.419 6.373 -6.125 5.062 C-5.046 3.966 -5.046 3.966 -3.945 2.848 C-2 1 -2 1 0 0 Z " fill="#292929" transform="translate(711,668)"/></g></svg>